<svg width="35" height="35" viewBox="0 0 35 35" fill="none" xmlns="http://www.w3.org/2000/svg">
<path d="M17.5008 0C7.875 0 0 7.875 0 17.5008C0 27.1266 7.875 35.0016 17.5008 35.0016C27.1266 35.0016 35.0016 27.1266 35.0016 17.5008C35.0016 7.875 27.1266 0 17.5008 0ZM7.5 12.5016C7.5 11.1258 8.625 10.0008 10.0008 10.0008C11.3766 10.0008 12.5016 11.1258 12.5016 12.5016C12.5016 13.8774 11.3766 15.0024 10.0008 15.0024C8.625 15.0001 7.5 13.8751 7.5 12.5016ZM25.0008 15C23.625 15 22.5 13.875 22.5 12.4992C22.5 11.1234 23.625 9.9984 25.0008 9.9984C26.3766 9.9984 27.5016 11.1234 27.5016 12.4992C27.5016 13.875 26.3766 15 25.0008 15Z" fill="black"/>
<path d="M17.5006 20.9998C20.5006 20.9998 23.6248 22.249 25.8748 24.499C26.3763 24.9982 26.3764 25.7482 25.8772 26.2498C25.3756 26.749 24.6256 26.749 24.1264 26.2498C20.503 22.624 14.503 22.624 10.8772 26.2498C10.3756 26.749 9.62558 26.749 9.12637 26.2498C8.62715 25.7482 8.62715 24.9982 9.12637 24.499C11.3764 22.1248 14.5006 20.9998 17.5006 20.9998Z" fill="#F8F8F8"/>
</svg>
