<svg width="35" height="35" viewBox="0 0 35 35" fill="none" xmlns="http://www.w3.org/2000/svg">
<path d="M17.5008 0C7.875 0 0 7.875 0 17.5008C0 27.1266 7.875 35.0016 17.5008 35.0016C27.1266 35.0016 35.0016 27.1266 35.0016 17.5008C35.0016 7.875 27.1266 0 17.5008 0ZM7.5 12.5016C7.5 11.1258 8.625 10.0008 10.0008 10.0008C11.3766 10.0008 12.5016 11.1258 12.5016 12.5016C12.5016 13.8774 11.3766 15.0024 10.0008 15.0024C8.625 15.0001 7.5 13.8751 7.5 12.5016ZM25.875 25.125C23.625 27.375 20.5008 28.6242 17.5008 28.6242C14.5008 28.6242 11.3766 27.4992 9.1266 25.125C8.62738 24.6258 8.62738 23.8758 9.1266 23.3742H10.8774C10.8774 23.3742 15.0955 23.5002 17.501 23.5007C19.9078 23.5013 20.501 23.5007 24.1266 23.3742C25.1451 23.3387 25.8774 23.3742 25.8774 23.3742C26.3766 23.8758 26.3766 24.6257 25.875 25.125ZM25.0008 15C23.625 15 22.5 13.875 22.5 12.4992C22.5 11.1234 23.625 9.9984 25.0008 9.9984C26.3766 9.9984 27.5016 11.1234 27.5016 12.4992C27.5016 13.875 26.3766 15 25.0008 15Z" fill="black"/>
</svg>
